<svg xmlns="http://www.w3.org/2000/svg" xmlns:xlink="http://www.w3.org/1999/xlink" version="1.1" x="0px" y="0px" viewBox="0 0 612 792" enable-background="new 0 0 612 792" xml:space="preserve"><g><path d="M555.304,135.068c-11.469-8.635-25.098-13.201-39.419-13.201c-20.802,0-39.908,9.517-52.412,26.12l-243.148,322.72   l-77.81-77.816c-12.387-12.387-28.856-19.205-46.371-19.205s-33.984,6.818-46.371,19.205c-25.569,25.569-25.569,67.173,0,92.742   l184.506,184.5l333.944-443.229C589.98,198.024,584.191,156.824,555.304,135.068z M547.275,211.121L231.489,630.249L68.324,467.09   c-15.343-15.343-15.343-40.306,0-55.649c7.436-7.43,17.313-11.524,27.822-11.524s20.392,4.088,27.822,11.524l99.144,99.15   l261.3-346.82c7.503-9.957,18.972-15.673,31.463-15.673c8.586,0,16.757,2.742,23.642,7.925   C556.853,169.07,560.329,193.795,547.275,211.121z"></path></g></svg>