<svg xmlns="http://www.w3.org/2000/svg" xmlns:xlink="http://www.w3.org/1999/xlink" version="1.1" x="0px" y="0px" viewBox="0 0 100 100" enable-background="new 0 0 100 100" xml:space="preserve"><path d="M89.523,52.069c0,5.002-1.874,9.821-5.275,13.569c-3.426,3.775-8.026,6.045-12.954,6.393  c-0.046,0.003-0.092,0.005-0.138,0.005H59.014c-1.081,0-1.957-0.876-1.957-1.957c0-1.081,0.876-1.957,1.957-1.957h12.07  c8.016-0.603,14.525-7.789,14.525-16.053c0-7.789-5.583-14.618-12.986-15.884c-0.871-0.149-1.534-0.863-1.618-1.743  c-0.927-9.719-9.007-17.048-18.794-17.048c-7.281,0-13.988,4.251-17.084,10.829c-0.433,0.92-1.499,1.355-2.451,1.001  c-0.907-0.336-1.875-0.507-2.878-0.507c-4.66,0-8.45,3.791-8.45,8.45c0,1.015,0.171,1.99,0.507,2.896  c0.33,0.891-0.028,1.891-0.849,2.371c-4.08,2.38-6.614,6.787-6.614,11.503c0,7.29,5.751,13.772,12.569,14.184h14.015  c1.081,0,1.957,0.876,1.957,1.957c0,1.081-0.876,1.957-1.957,1.957H26.903c-0.036,0-0.073-0.001-0.109-0.003  c-4.383-0.244-8.507-2.318-11.613-5.838c-3.034-3.438-4.704-7.791-4.704-12.256c0-5.583,2.745-10.832,7.254-14.043  c-0.198-0.883-0.298-1.795-0.298-2.727c0-6.817,5.546-12.364,12.363-12.364c0.87,0,1.726,0.089,2.558,0.265  c4.008-7.091,11.628-11.588,19.856-11.588c5.708,0,11.169,2.119,15.378,5.965c3.82,3.491,6.318,8.13,7.128,13.186  C83.252,34.803,89.523,42.904,89.523,52.069z M60.321,55.847c0.382,0.382,0.883,0.573,1.384,0.573c0.501,0,1.002-0.191,1.383-0.573  c0.764-0.764,0.764-2.003,0-2.767L51.384,41.375c-0.764-0.764-2.003-0.764-2.767,0L36.912,53.079c-0.764,0.764-0.764,2.003,0,2.767  c0.382,0.382,0.883,0.573,1.384,0.573c0.501,0,1.002-0.191,1.383-0.573l8.365-8.365v37.081c0,1.081,0.876,1.957,1.957,1.957  c1.081,0,1.957-0.876,1.957-1.957v-37.08L60.321,55.847z"></path></svg>