<svg xmlns="http://www.w3.org/2000/svg" data-name="Layer 1" viewBox="0 0 5 5" x="0px" y="0px"><title>icon_download</title><g><path d="M2.5,4.10459a1.60459,1.60459,0,1,1,1.13462-.47A1.59409,1.59409,0,0,1,2.5,4.10459Zm0-3.069a1.46442,1.46442,0,1,0,1.03549.42892A1.45482,1.45482,0,0,0,2.5,1.03559Z"></path><g><g><path d="M2.5,3.1191A.07009.07009,0,0,1,2.42991,3.049V1.49964a.07009.07009,0,1,1,.14018,0V3.049A.07009.07009,0,0,1,2.5,3.1191Z"></path><g><path d="M2.5,3.19574a.07009.07009,0,0,1-.04956-.11965l.66529-.66529a.07009.07009,0,0,1,.09912.09912l-.66529.66529A.06986.06986,0,0,1,2.5,3.19574Z"></path><path d="M2.5,3.19574a.06986.06986,0,0,1-.04956-.02053l-.66529-.66529a.07009.07009,0,0,1,.09912-.09912l.66529.66529A.07009.07009,0,0,1,2.5,3.19574Z"></path></g></g><path d="M3.18241,3.30046H1.81759a.07009.07009,0,0,1,0-.14018H3.18241a.07009.07009,0,0,1,0,.14018Z"></path></g></g></svg>