<svg xmlns:dc="http://purl.org/dc/elements/1.1/" xmlns:cc="http://creativecommons.org/ns#" xmlns:rdf="http://www.w3.org/1999/02/22-rdf-syntax-ns#" xmlns:svg="http://www.w3.org/2000/svg" xmlns="http://www.w3.org/2000/svg" xmlns:sodipodi="http://sodipodi.sourceforge.net/DTD/sodipodi-0.dtd" xmlns:inkscape="http://www.inkscape.org/namespaces/inkscape" version="1.1" x="0px" y="0px" viewBox="0 0 100 100"><g transform="translate(0,-952.36218)"><path style="text-indent:0;text-transform:none;direction:ltr;block-progression:tb;baseline-shift:baseline;color:#000000;enable-background:accumulate;" d="m 12,975.36219 c -3.8607,0 -7,3.13925 -7,7 l 0,40.00001 c 0,3.8607 3.1393,7 7,7 l 76,0 c 3.8607,0 7,-3.1393 7,-7 l 0,-40.00001 c 0,-3.86075 -3.1393,-7 -7,-7 l -76,0 z m 0,2 76,0 c 2.7873,0 5,2.21266 5,5 l 0,40.00001 c 0,2.7873 -2.2127,5 -5,5 l -76,0 c -2.7873,0 -5,-2.2127 -5,-5 l 0,-40.00001 c 0,-2.78734 2.2127,-5 5,-5 z m 5.8438,8.96875 a 1.0001,1.0001 0 0 0 -0.5313,1.75 L 33.5,1002.8934 17.3438,1016.581 a 1.0083551,1.0083551 0 1 0 1.3124,1.5312 L 35,1004.2372 l 9.9375,9.0938 c 2.8549,2.6108 7.2056,2.6066 10.0625,0 l 9.9688,-9.0938 16.375,13.875 a 1.0083551,1.0083551 0 1 0 1.3124,-1.5312 l -16.1874,-13.7188 16.2187,-14.78126 a 1.0059637,1.0059637 0 1 0 -1.375,-1.46875 l -27.6563,25.25001 c -2.124,1.938 -5.2542,1.9394 -7.375,0 L 18.6875,986.61219 a 1.0001,1.0001 0 0 0 -0.75,-0.28125 1.0001,1.0001 0 0 0 -0.094,0 z" fill="#000000" fill-opacity="1" stroke="none" marker="none" visibility="visible" display="inline" overflow="visible"></path></g></svg>