<svg xmlns="http://www.w3.org/2000/svg" xmlns:xlink="http://www.w3.org/1999/xlink" version="1.1" x="0px" y="0px" viewBox="0 0 100 100" style="enable-background:new 0 0 100 100;" xml:space="preserve"><g><path d="M25.9,32.5h16.5c8,0,14.6,6.5,14.6,14.6v6c0,0.6,0.4,1,1,1s1-0.4,1-1v-6c0-9.1-7.4-16.6-16.6-16.6H25.9   c-9.1,0-16.6,7.4-16.6,16.6v4c0,9.1,7.4,16.6,16.6,16.6h14.5c0.6,0,1-0.4,1-1s-0.4-1-1-1H25.9c-8,0-14.6-6.5-14.6-14.6v-4   C11.3,39.1,17.9,32.5,25.9,32.5z"></path><path d="M74.4,30.5H61.9c-0.6,0-1,0.4-1,1s0.4,1,1,1h12.5c8,0,14.6,6.5,14.6,14.6v4c0,8-6.5,14.6-14.6,14.6H59.9   c-8,0-14.6-6.5-14.6-14.6v-6c0-0.6-0.4-1-1-1s-1,0.4-1,1v6c0,9.1,7.4,16.6,16.6,16.6h14.5c9.1,0,16.6-7.4,16.6-16.6v-4   C91,38,83.6,30.5,74.4,30.5z"></path></g></svg>