<svg xmlns="http://www.w3.org/2000/svg" xmlns:xlink="http://www.w3.org/1999/xlink" version="1.1" x="0px" y="0px" viewBox="0 0 24 24" style="enable-background:new 0 0 24 24;" xml:space="preserve"><g><path d="M8.837,19.825c-0.445,0.445-1.036,0.69-1.665,0.69c-0.629,0-1.22-0.245-1.665-0.69l-1.332-1.332   c-0.445-0.445-0.69-1.036-0.69-1.665c0-0.629,0.245-1.22,0.69-1.665l4.995-4.995c0.918-0.918,2.412-0.918,3.33,0l1.331,1.331   c0.191,0.192,0.346,0.41,0.46,0.649l0.85-0.406c-0.16-0.336-0.377-0.642-0.644-0.909l-1.332-1.332   c-1.285-1.285-3.376-1.285-4.662,0l-4.995,4.995c-0.623,0.623-0.966,1.45-0.966,2.331c0,0.881,0.343,1.708,0.966,2.331l1.332,1.332   c0.622,0.623,1.45,0.966,2.331,0.966c0.88,0,1.708-0.343,2.331-0.966l3.33-3.329l-0.666-0.666L8.837,19.825z"></path><path d="M20.491,4.841l-1.332-1.332c-0.622-0.623-1.45-0.966-2.331-0.966c-0.881,0-1.708,0.343-2.331,0.966l-3.33,3.329   l0.666,0.666l3.33-3.329c0.445-0.445,1.036-0.69,1.665-0.69c0.629,0,1.22,0.245,1.665,0.69l1.332,1.332   c0.445,0.445,0.69,1.036,0.69,1.665c0,0.629-0.245,1.22-0.69,1.665l-4.995,4.995c-0.918,0.918-2.412,0.918-3.33,0L10.169,12.5   c-0.19-0.191-0.345-0.41-0.46-0.65l-0.85,0.407c0.161,0.337,0.378,0.642,0.644,0.909l1.332,1.332   c0.643,0.642,1.487,0.964,2.331,0.964c0.844,0,1.688-0.321,2.331-0.964l4.995-4.995c0.623-0.622,0.966-1.45,0.966-2.331   C21.457,6.291,21.113,5.463,20.491,4.841z"></path></g></svg>