<svg xmlns="http://www.w3.org/2000/svg" xmlns:xlink="http://www.w3.org/1999/xlink" version="1.1" x="0px" y="0px" viewBox="0 0 512 512" enable-background="new 0 0 512 512" xml:space="preserve"><g><g><path d="M256,424.129c-22.675,0-44.677-4.443-65.396-13.206c-20.005-8.461-37.971-20.574-53.398-36.001    c-15.427-15.426-27.539-33.391-36.001-53.397C92.443,300.807,88,278.804,88,256.129c0-22.676,4.443-44.679,13.206-65.396    c8.462-20.007,20.575-37.973,36.001-53.398l11.313,11.314c-13.962,13.961-24.923,30.217-32.579,48.316    C108.018,215.7,104,235.605,104,256.129c0,20.522,4.018,40.428,11.942,59.163c7.655,18.098,18.616,34.354,32.579,48.315    c13.963,13.964,30.219,24.925,48.316,32.579c18.736,7.924,38.641,11.942,59.163,11.942s40.427-4.018,59.163-11.942    c18.097-7.654,34.353-18.615,48.316-32.579c13.962-13.96,24.923-30.216,32.579-48.316C403.982,296.557,408,276.651,408,256.129    c0-20.523-4.018-40.429-11.942-59.163c-7.656-18.101-18.617-34.357-32.578-48.316l11.312-11.314    c15.426,15.424,27.539,33.39,36.002,53.398C419.557,211.45,424,233.453,424,256.129c0,22.675-4.443,44.678-13.206,65.396    c-8.462,20.008-20.575,37.973-36.002,53.397c-15.427,15.428-33.393,27.54-53.397,36.001    C300.677,419.686,278.675,424.129,256,424.129z"></path></g><g><rect x="248" y="96" width="16" height="160"></rect></g></g></svg>