<svg xmlns="http://www.w3.org/2000/svg" xmlns:xlink="http://www.w3.org/1999/xlink" version="1.1" x="0px" y="0px" viewBox="0 0 50 50" enable-background="new 0 0 50 50" xml:space="preserve"><g><path fill="#000000" d="M16.113,5.044c-5.553,0-10.068,4.52-10.068,10.068v18.773c0,5.551,4.515,10.069,10.068,10.069h18.773   c5.553,0,10.069-4.519,10.069-10.069V15.113c0-5.553-4.517-10.068-10.069-10.068 M40.93,33.884c0,3.331-2.712,6.04-6.044,6.04   H16.113c-3.327,0-6.041-2.709-6.041-6.04V15.109c0-3.332,2.714-6.042,6.041-6.042h18.773c3.332,0,6.044,2.71,6.044,6.042V33.884z"></path></g></svg>