<svg xmlns="http://www.w3.org/2000/svg" xmlns:xlink="http://www.w3.org/1999/xlink" version="1.1" x="0px" y="0px" viewBox="0 0 64 64" enable-background="new 0 0 64 64" xml:space="preserve"><g display="none"><rect x="374.507" y="-521.5" transform="matrix(1.067751e-10 -1 1 1.067751e-10 394.5074 374.5074)" display="inline" fill="#000000" width="20" height="1023"></rect><rect x="-54.012" y="-373.668" display="inline" fill="#000000" width="947.424" height="496.184"></rect></g><g display="none"><g display="inline"><g><rect x="0" y="8" transform="matrix(4.462190e-11 1 -1 4.462190e-11 64 -1.415167e-09)" fill="#000000" width="64" height="48"></rect></g><g><rect x="29.805" y="-21.805" transform="matrix(6.505808e-10 1 -1 6.505808e-10 34.1948 -29.8052)" width="4.39" height="48"></rect></g><g><rect x="29.805" y="37.746" transform="matrix(6.505808e-10 1 -1 6.505808e-10 93.7459 29.7459)" fill="#000000" width="4.39" height="48"></rect></g><g><g><rect x="15.293" y="43.428" width="33.285" height="1.333"></rect></g><g><rect x="15.293" y="47.428" fill="#000000" width="33.285" height="1.333"></rect></g><g><rect x="15.293" y="50.095" fill="#000000" width="33.285" height="1.333"></rect></g><g><rect x="15.293" y="52.762" fill="#000000" width="33.285" height="1.333"></rect></g></g><g><path fill="#000000" d="M19.727,28.477l5.731-8.247v-0.071h-5.195V17.91h8.728v1.57l-5.605,8.141v0.071h5.695v2.249h-9.355     V28.477z"></path><path fill="#000000" d="M33.354,17.91v12.031h-2.731V17.91H33.354z"></path><path fill="#000000" d="M35.534,18.07c0.839-0.142,2.016-0.25,3.677-0.25c1.677,0,2.874,0.321,3.676,0.964     c0.769,0.608,1.286,1.608,1.286,2.785c0,1.179-0.392,2.179-1.108,2.856c-0.927,0.875-2.302,1.267-3.908,1.267     c-0.358,0-0.679-0.017-0.929-0.054v4.302h-2.695V18.07z M38.229,23.532c0.233,0.054,0.517,0.071,0.91,0.071     c1.446,0,2.339-0.731,2.339-1.964c0-1.106-0.767-1.766-2.124-1.766c-0.554,0-0.929,0.052-1.125,0.106V23.532z"></path></g></g></g><g display="none"><g display="inline"><circle fill="#000000" cx="32" cy="32" r="32"></circle></g><g display="inline"><defs><circle id="b" cx="32" cy="32" r="32"></circle></defs><clipPath id="a"><use xlink:href="#b" overflow="visible"></use></clipPath><polygon clip-path="url(#a)" fill="#000000" points="48.168,10.491 72.673,34.996 48.927,70.175 36.555,74.088     15.918,53.451   "></polygon></g><rect x="10.543" y="15.866" transform="matrix(4.462901e-11 1 -1 4.462901e-11 64.0343 -0.0521)" display="inline" fill="#000000" width="43" height="32.25"></rect><rect x="30.569" y="-4.159" transform="matrix(6.506767e-10 1 -1 6.506767e-10 44.009 -20.0774)" display="inline" width="2.949" height="32.25"></rect><rect x="30.569" y="35.852" transform="matrix(6.506767e-10 1 -1 6.506767e-10 84.0198 19.9334)" display="inline" fill="#000000" width="2.949" height="32.25"></rect><g display="inline"><rect x="20.818" y="39.67" width="22.363" height="0.896"></rect><rect x="20.818" y="42.357" fill="#000000" width="22.363" height="0.896"></rect><rect x="20.818" y="44.149" fill="#000000" width="22.363" height="0.896"></rect><rect x="20.818" y="45.94" fill="#000000" width="22.363" height="0.896"></rect></g><text transform="matrix(1 0 0 1 23.5221 30.6075)" display="inline" fill="#000000" font-family="'MyriadPro-Bold'" font-size="12px">ZIP</text></g><g><g><polygon points="29.082,25.692 23.387,25.692 23.387,25.621 28.992,17.48 28.992,15.91 20.264,15.91 20.264,18.159 25.458,18.159     25.458,18.23 19.727,26.477 19.727,27.941 29.082,27.941   "></polygon><rect x="30.623" y="15.91" width="2.731" height="12.031"></rect><path d="M38.229,23.638c0.25,0.036,0.571,0.054,0.929,0.054c1.606,0,2.981-0.392,3.908-1.267c0.715-0.677,1.108-1.677,1.108-2.856    c0-1.177-0.517-2.177-1.286-2.785c-0.802-0.642-1.999-0.964-3.676-0.964c-1.661,0-2.839,0.108-3.677,0.25v11.871h2.695V23.638z     M38.229,17.98c0.196-0.054,0.571-0.106,1.125-0.106c1.356,0,2.124,0.66,2.124,1.766c0,1.233-0.892,1.964-2.339,1.964    c-0.392,0-0.677-0.017-0.91-0.071V17.98z"></path><path d="M7,64h50V0H7V64z M9,2h46v60H9V2z"></path><rect x="14.293" y="40.429" width="35.286" height="2"></rect><rect x="14.293" y="45.332" width="35.286" height="2"></rect><rect x="14.293" y="50.235" width="35.286" height="2"></rect></g></g><g display="none"><g display="inline"><circle fill="#000000" cx="32" cy="32" r="32"></circle></g><g display="inline"><g><g><g><g><rect x="11" y="4.84" width="42" height="54.32"></rect></g><g><path fill="#000000" d="M52,5.84v52.32H12V5.84H52 M54,3.84H10v56.32h44V3.84L54,3.84z"></path></g></g></g><g><g><rect x="16.418" y="39.297" fill="#000000" width="31.051" height="2"></rect></g></g><g><g><rect x="16.418" y="43.612" fill="#000000" width="31.051" height="2"></rect></g></g><g><g><rect x="16.418" y="47.927" fill="#000000" width="31.051" height="2"></rect></g></g></g><g><g><g><path fill="#000000" d="M21.2,27.14l5.043-7.257V19.82h-4.571v-1.979h7.681v1.381l-4.932,7.164v0.063h5.011v1.979H21.2V27.14z"></path></g></g><g><g><path fill="#000000" d="M33.191,17.841v10.587h-2.403V17.841H33.191z"></path></g></g><g><g><path fill="#000000" d="M35.11,17.982c0.738-0.125,1.774-0.22,3.236-0.22c1.476,0,2.529,0.283,3.235,0.848       c0.677,0.535,1.132,1.415,1.132,2.451c0,1.037-0.345,1.917-0.975,2.513c-0.816,0.77-2.026,1.115-3.439,1.115       c-0.315,0-0.597-0.015-0.817-0.047v3.786H35.11V17.982z M37.481,22.788c0.205,0.047,0.455,0.063,0.801,0.063       c1.273,0,2.058-0.643,2.058-1.728c0-0.973-0.675-1.554-1.869-1.554c-0.487,0-0.817,0.046-0.99,0.093V22.788z"></path></g></g></g></g></g><g display="none"><g display="inline"><path d="M7,64h50V0H7V64z M35.534,15.07c0.839-0.142,2.016-0.25,3.677-0.25c1.677,0,2.874,0.321,3.676,0.964    c0.769,0.608,1.286,1.608,1.286,2.785c0,1.179-0.392,2.179-1.108,2.856c-0.927,0.875-2.302,1.267-3.908,1.267    c-0.358,0-0.679-0.017-0.929-0.054v4.302h-2.695V15.07z M30.623,14.91h2.731v12.031h-2.731V14.91z M19.727,25.477l5.731-8.247    v-0.071h-5.195V14.91h8.728v1.57l-5.605,8.141v0.071h5.695v2.249h-9.355V25.477z M14.293,40.429h35.286v2H14.293V40.429z     M14.293,45.332h35.286v2H14.293V45.332z M14.293,50.235h35.286v2H14.293V50.235z"></path><path d="M41.477,18.64c0-1.106-0.767-1.766-2.124-1.766c-0.554,0-0.929,0.052-1.125,0.106v3.552    c0.233,0.054,0.517,0.071,0.91,0.071C40.585,20.603,41.477,19.872,41.477,18.64z"></path></g></g></svg>