<svg xmlns="http://www.w3.org/2000/svg" xmlns:xlink="http://www.w3.org/1999/xlink" xmlns:sketch="http://www.bohemiancoding.com/sketch/ns" viewBox="0 0 30 30" version="1.1" x="0px" y="0px"><title>action_091-grid_view-block-thumbnail-item</title><desc>Created with Sketch.</desc><g stroke="none" stroke-width="1" fill="none" fill-rule="evenodd" sketch:type="MSPage"><g sketch:type="MSArtboardGroup" transform="translate(-45.000000, -450.000000)" fill="#000000"><path d="M50,455 L58,455 L58,463 L50,463 L50,455 Z M50,467 L58,467 L58,475 L50,475 L50,467 Z M62,455 L70,455 L70,463 L62,463 L62,455 Z M62,467 L70,467 L70,475 L62,475 L62,467 Z M51,456 L57,456 L57,462 L51,462 L51,456 Z M51,468 L57,468 L57,474 L51,474 L51,468 Z M63,456 L69,456 L69,462 L63,462 L63,456 Z M63,468 L69,468 L69,474 L63,474 L63,468 Z" sketch:type="MSShapeGroup"></path></g></g></svg>