<svg xmlns:dc="http://purl.org/dc/elements/1.1/" xmlns:cc="http://creativecommons.org/ns#" xmlns:rdf="http://www.w3.org/1999/02/22-rdf-syntax-ns#" xmlns:svg="http://www.w3.org/2000/svg" xmlns="http://www.w3.org/2000/svg" xmlns:sodipodi="http://sodipodi.sourceforge.net/DTD/sodipodi-0.dtd" xmlns:inkscape="http://www.inkscape.org/namespaces/inkscape" version="1.1" x="0px" y="0px" viewBox="0 0 100 100"><g transform="translate(0,-952.36218)"><path style="text-indent:0;text-transform:none;direction:ltr;block-progression:tb;baseline-shift:baseline;color:#000000;enable-background:accumulate;" d="m 41.999938,958.362 c -0.6064,0.051 -0.8194,0.4881 -1,0.8437 l -1.8437,12 c -1.2111,0.4238 -2.3946,0.9151 -3.5313,1.4688 l -9.7813,-7.1875 c -0.3821,-0.2884 -0.9754,-0.246 -1.3124,0.094 l -11.3126,11.3125 c -0.3397,0.3372 -0.3819,0.9304 -0.094,1.3125 l 7.1875,9.7812 c -0.5532,1.1359 -1.014,2.3212 -1.4375,3.5313 l -12.0313009,1.8437 c -0.4695,0.074 -0.8495,0.5247 -0.8437,1 l 0,16 c 0.01,0.4649 0.3843,0.8961 0.8437,0.9687 l 12.0313009,1.8438 c 0.425,1.2174 0.8813,2.3889 1.4375,3.5312 l -7.1875,9.8125 c -0.2718,0.3773 -0.2304,0.9476 0.094,1.2813 l 11.3126,11.3125 c 0.3371,0.3398 0.9304,0.3822 1.3124,0.094 l 9.7813,-7.1875 c 1.1367,0.5537 2.3202,1.045 3.5313,1.4687 l 1.8437,12 c 0.061,0.4807 0.5155,0.8788 1,0.875 l 16,0 c 0.4844,0 0.9394,-0.3943 1,-0.875 l 1.8437,-12 c 1.2111,-0.4237 2.3946,-0.915 3.5313,-1.4687 l 9.7813,7.1875 c 0.3821,0.2884 0.9753,0.246 1.3124,-0.094 l 11.3126,-11.3125 c 0.3239,-0.3337 0.3653,-0.904 0.094,-1.2813 l -7.1875,-9.8125 c 0.5563,-1.1423 1.0126,-2.3138 1.4375,-3.5312 l 12.0313,-1.8438 c 0.4592,-0.073 0.8349,-0.5038 0.8437,-0.9687 l 0,-16 c 0.01,-0.4753 -0.3743,-0.9257 -0.8437,-1 l -12.0313,-1.8437 c -0.4235,-1.2101 -0.8843,-2.3954 -1.4375,-3.5313 l 7.1875,-9.7812 c 0.2884,-0.3821 0.2464,-0.9753 -0.094,-1.3125 l -11.3126,-11.3125 c -0.3371,-0.3398 -0.9303,-0.3822 -1.3124,-0.094 l -9.7813,7.1875 c -1.1367,-0.5537 -2.3202,-1.045 -3.5313,-1.4688 l -1.8437,-12 c -0.074,-0.4695 -0.5247,-0.8495 -1,-0.8437 l -16,0 z m 0.875,2 14.25,0 1.8125,11.6875 c 0.053,0.3704 0.331,0.6993 0.6875,0.8125 1.5275,0.4979 2.984,1.1197 4.4063,1.8437 0.3334,0.1714 0.7639,0.1333 1.0624,-0.094 l 9.5626,-7 10.0937,10.0938 -7.0313,9.5625 c -0.2152,0.2921 -0.2524,0.7051 -0.094,1.0312 0.7241,1.4222 1.377,2.91 1.875,4.4375 0.1179,0.3369 0.4292,0.5982 0.7813,0.6563 l 11.7187,1.8125 0,14.2812 -11.7187,1.8125 c -0.3594,0.063 -0.6728,0.3392 -0.7813,0.6875 -0.498,1.5275 -1.1509,2.9841 -1.875,4.4062 -0.1713,0.3336 -0.1336,0.7641 0.094,1.0625 l 7,9.5625 -10.0624,10.0625 -9.5626,-7 c -0.2985,-0.227 -0.729,-0.2651 -1.0624,-0.094 -1.4222,0.7241 -2.8788,1.3459 -4.4063,1.8438 -0.3565,0.1132 -0.6349,0.4421 -0.6875,0.8125 l -1.8125,11.7187 -14.25,0 -1.8125,-11.7187 c -0.053,-0.3704 -0.3309,-0.6993 -0.6875,-0.8125 -1.5275,-0.4979 -2.9841,-1.1197 -4.4063,-1.8438 -0.3335,-0.1713 -0.7641,-0.1332 -1.0624,0.094 l -9.5626,7 -10.0624,-10.0625 7,-9.5625 c 0.227,-0.2984 0.2647,-0.7289 0.094,-1.0625 -0.7241,-1.4221 -1.3771,-2.8787 -1.875,-4.4062 -0.1085,-0.3483 -0.4219,-0.6242 -0.7813,-0.6875 l -11.7187009,-1.8125 0,-14.2812 11.7187009,-1.8125 c 0.3522,-0.058 0.6634,-0.3194 0.7813,-0.6563 0.4979,-1.5275 1.1509,-3.0153 1.875,-4.4375 0.159,-0.3261 0.1217,-0.7391 -0.094,-1.0312 l -7.0313,-9.5625 10.0937,-10.0938 9.5626,7 c 0.2983,0.2271 0.7289,0.2652 1.0624,0.094 1.4222,-0.724 2.8788,-1.3458 4.4063,-1.8437 0.3565,-0.1132 0.6348,-0.4421 0.6875,-0.8125 l 1.8125,-11.6875 z m 7.125,23 c -10.4815,0 -19,8.5183 -19,19 0,10.4815 8.5185,18.9999 19,18.9999 10.4816,0 19,-8.5184 19,-18.9999 0,-10.4817 -8.5184,-19 -19,-19 z m 0,2 c 9.4007,0 17,7.5992 17,17 0,9.4006 -7.5993,16.9999 -17,16.9999 -9.4007,0 -17,-7.5993 -17,-16.9999 0,-9.4008 7.5993,-17 17,-17 z" fill="#000000" fill-opacity="1" stroke="none" marker="none" visibility="visible" display="inline" overflow="visible"></path></g></svg>